<svg xmlns="http://www.w3.org/2000/svg" viewBox="0 0 439.66 439.66"><defs><style>.cls-1{fill:#bcbec0;}.cls-2{fill:#fdcba7;}.cls-2,.cls-3,.cls-4,.cls-5,.cls-6,.cls-7,.cls-8,.cls-9{fill-rule:evenodd;}.cls-3{fill:#fabb8e;}.cls-4{fill:#d9392d;}.cls-5{fill:#c62127;}.cls-6{fill:#fff;}.cls-7{fill:#e5e6e7;}.cls-8{fill:#010101;}.cls-9{fill:#f38365;}</style></defs><g id="Layer_2" data-name="Layer 2"><g id="new"><circle class="cls-1" cx="219.83" cy="219.83" r="219.83"/><path class="cls-2" d="M179.8,231.66c-2.49,22.21-10,36.74-19.1,47.74-13.28,16.18-31.54,30.09-46.07,45a144.64,144.64,0,0,0,124.53,71.19h82c3.94-9.54,5-20.54,2.7-32.79-6-32.79-45.25-54.58-69.32-83.43-9.14-11-16.61-25.53-19.1-47.74Z"/><path class="cls-3" d="M322.18,392.93c3.11-8.93,3.73-18.89,1.66-30.1-6-32.79-45.25-54.58-69.32-83.43-9.14-11-16.61-25.53-19.1-47.74H197L179,249.92Z"/><path class="cls-2" d="M207.61,26.39a95.58,95.58,0,0,1,95.68,95.68c0,52.72-33.21,133.87-95.68,133.87s-95.68-81.15-95.68-133.87a95.57,95.57,0,0,1,95.68-95.68Z"/><path class="cls-4" d="M107.36,310.53a149.46,149.46,0,0,1,64.55-49c-1.24,27.6,72.44,27.6,71.4,0,65.79,26.36,92.56,87.58,101.07,134.07H239.16c-58.53,0-109-35.07-131.8-85.09Z"/><path class="cls-5" d="M211.35,282.09c16.81-.83,32.37-7.67,32-20.54,65.79,26.36,92.56,87.58,101.07,134.07H324.87Z"/><path class="cls-6" d="M175,271.09c11.83,14.74,53.14,14.74,65,0h3.53V395.62h-4.36a142.55,142.55,0,0,1-67.46-16.81V271.09Z"/><path class="cls-7" d="M211.35,282.09c11.83-.62,23.45-4.35,28.64-11h3.53v43.17Z"/><path class="cls-2" d="M298.31,144.9c-10,0-19.51,8.1-21,18.27s5.6,18.26,15.77,18.26a21.74,21.74,0,0,0,21-18.26c1.46-10.17-5.6-18.27-15.77-18.27Z"/><path class="cls-2" d="M116.91,144.9a21.75,21.75,0,0,1,21,18.27c1.46,10.17-5.6,18.26-15.77,18.26-10,0-19.51-8.09-21-18.26-1.25-10.17,5.6-18.27,15.77-18.27Z"/><path class="cls-8" d="M207.61,19.75c54.79,0,99.21,43,99.21,95.89,0,17-3.53,37.15-10.59,56.45C256,161.3,272.16,65,207.61,65s-48.36,96.3-88.42,107.09c-7.26-19.3-10.79-39.43-10.79-56.45,0-52.92,44.42-95.89,99.21-95.89Z"/><path class="cls-8" d="M238.12,153.62a7.79,7.79,0,0,1,0,15.57,7.79,7.79,0,1,1,0-15.57Z"/><path class="cls-8" d="M177.31,153.62a7.79,7.79,0,0,1,0,15.57,7.79,7.79,0,1,1,0-15.57Z"/><path class="cls-9" d="M207.61,165.24c8.3,0,14.74,24.7,14.74,33.83,0,8.93-6,8.51-14.33,8.51-8.09,0-15.15.42-15.15-8.51,0-9.13,6.65-33.83,14.74-33.83Z"/><path class="cls-8" d="M137.87,79.94s5.19,55.21,84.89,57.49l1.45-86.34s-74.92-5-86.34,28.85Z"/><path class="cls-8" d="M194.33,70.81s4.15,55,70.36,57.28l1.45-86.34S203.67,37,194.33,70.81Z"/><path class="cls-8" d="M207.61,211.74c18.68,0,33.62,15.56,33.62,34.66s-14.94,34.66-33.62,34.66c-18.47,0-33.62-15.57-33.62-34.66s15.15-34.66,33.62-34.66Zm0,8.09c11.21,0,20.13,7.47,20.13,16.81,0,9.13-8.92,16.81-20.13,16.81-11,0-20.13-7.68-20.13-16.81,0-9.34,9.13-16.81,20.13-16.81Z"/><path class="cls-4" d="M146.18,361.79c-9.76-28.85-22.83-53.13-38.82-51.47-9.54-24.49,24.29-52.3,46.91-54.38,34.87-3.32,35.28,54.59,37.77,79.7,1.87,17.64,2.91,35.91,3.53,53.34a145.38,145.38,0,0,1-49.39-27.19Z"/><path class="cls-4" d="M258.46,395.62c10.17-40.26,26.57-87.58,48.77-85.3,9.55-24.49-24.28-52.3-46.9-54.38-34.87-3.32-35.29,54.59-38,79.7-1.87,19.3-2.91,39.64-3.53,58.53a131.91,131.91,0,0,0,20.34,1.45Z"/><path class="cls-5" d="M274.44,345.4c8.93-21,19.93-36.32,32.79-35.08,9.55-24.49-24.28-52.3-46.9-54.38-21.59-2.07-29.89,19.1-33.83,41.51Z"/></g></g></svg>