<svg id="Layer_1" data-name="Layer 1" xmlns="http://www.w3.org/2000/svg" viewBox="0 0 439.66 439.66"><defs><style>.cls-1{fill:#bcbec0;}.cls-2{fill:#fdcba7;}.cls-2,.cls-3,.cls-4,.cls-5,.cls-6,.cls-7,.cls-8{fill-rule:evenodd;}.cls-3{fill:#010101;}.cls-4{fill:#fabb8e;}.cls-5{fill:#fff200;}.cls-6{fill:#ffde17;}.cls-7{fill:#fff;}.cls-8{fill:#f38365;}</style></defs><circle class="cls-1" cx="219.83" cy="219.83" r="219.83"/><path class="cls-2" d="M258.61,491.22c-2.29,18.71-8.47,31.25-16.24,40.61-12.71,15.18-30.54,28.25-43.43,42.55A101.7,101.7,0,0,0,257,592.56H378c-10.24-22.42-38-39.37-55.79-60.73-7.77-9.36-14.13-21.9-16.25-40.61Z" transform="translate(-78.17 -200.67)"/><path class="cls-3" d="M383,382.28s-26.66,40.6,4.77,76.44l.17-70.09Z" transform="translate(-78.17 -200.67)"/><path class="cls-3" d="M298,227.19a47.59,47.59,0,1,1-47.67,47.67A47.7,47.7,0,0,1,298,227.19Z" transform="translate(-78.17 -200.67)"/><path class="cls-2" d="M387.87,393.29a21.74,21.74,0,0,0-21,18.26c-1.46,10.17,5.6,18.26,15.77,18.26,10,0,19.3-8.09,20.75-18.26s-5.39-18.26-15.56-18.26Z" transform="translate(-78.17 -200.67)"/><path class="cls-2" d="M206.47,393.29c10,0,19.3,8.09,20.76,18.26s-5.4,18.26-15.57,18.26a21.74,21.74,0,0,1-21-18.26c-1.46-10.17,5.6-18.26,15.77-18.26Z" transform="translate(-78.17 -200.67)"/><path class="cls-4" d="M361.09,592.12a255.37,255.37,0,0,0,36.33-11.42c-15.16-18.05-37.57-33.83-53.34-52.92-9.14-11-16.61-25.53-19.1-47.74H283.06l-17,17Z" transform="translate(-78.17 -200.67)"/><path class="cls-2" d="M297.17,274.78a95.7,95.7,0,0,1,95.68,95.68c0,52.92-33.21,134.07-95.68,134.07s-95.68-81.15-95.68-134.07a95.57,95.57,0,0,1,95.68-95.68Z" transform="translate(-78.17 -200.67)"/><path class="cls-5" d="M350.72,535.66c-9.34-8.92-98-8.92-107.31,0l-48.77,41.51c1.25,1.25,2.49,2.29,3.74,3.74a257.52,257.52,0,0,0,64.75,16.4v1.86s-4.15,1.5,68.91,1.5h0c22.41-2.7,43.79-11.46,63.3-19.14a44.8,44.8,0,0,1,4.36-4.36Z" transform="translate(-78.17 -200.67)"/><path class="cls-6" d="M350.72,535.66C346.15,531.31,322.08,529,298,529l63.09,63.1a262.56,262.56,0,0,0,34.25-10.59,44.8,44.8,0,0,1,4.36-4.36Z" transform="translate(-78.17 -200.67)"/><path class="cls-7" d="M297.38,541.89a8.85,8.85,0,0,1,8.92,8.93,8.93,8.93,0,0,1-17.85,0,8.86,8.86,0,0,1,8.93-8.93Z" transform="translate(-78.17 -200.67)"/><path class="cls-7" d="M297.38,576.55a8.93,8.93,0,1,1-8.93,8.93,8.86,8.86,0,0,1,8.93-8.93Z" transform="translate(-78.17 -200.67)"/><path class="cls-8" d="M297.17,453.27c10.38,0,14.94-9.34.21-9.34-15.15,0-10.8,8.92-1.25,9.34Z" transform="translate(-78.17 -200.67)"/><path class="cls-3" d="M327.47,402a7.79,7.79,0,1,1,0,15.57,7.79,7.79,0,0,1,0-15.57Z" transform="translate(-78.17 -200.67)"/><path class="cls-3" d="M266.66,402a7.79,7.79,0,1,1-7.68,7.89,7.71,7.71,0,0,1,7.68-7.89Z" transform="translate(-78.17 -200.67)"/><path class="cls-3" d="M298.1,262c-54.67,0-99.2,42.87-99.2,95.48,0,17.19,3.72,37.28,10.77,56.54.41-37.07,43.49-98.79,100.65-91.54,7.05,70.21,61.72,79.73,81.61,73.31a151.61,151.61,0,0,0,5.17-38.31c0-52.61-44.32-95.48-99-95.48Z" transform="translate(-78.17 -200.67)"/></svg>