<svg xmlns="http://www.w3.org/2000/svg" viewBox="0 0 439.66 439.66"><defs><style>.cls-1{fill:#bcbec0;}.cls-2{fill:#fabb8e;}.cls-2,.cls-3,.cls-4,.cls-5,.cls-6,.cls-7{fill-rule:evenodd;}.cls-3{fill:#fdcba7;}.cls-4{fill:#010101;}.cls-5{fill:#f38365;}.cls-6{fill:#d9392d;}.cls-7{fill:#c62127;}</style></defs><g id="Layer_2" data-name="Layer 2"><g id="new"><circle class="cls-1" cx="219.83" cy="219.83" r="219.83"/><path class="cls-2" d="M185.79,255.11a115,115,0,0,1-3.32,16.81l100,100.25,24.28-24.28C292.26,332.94,274,319,260.51,302.64c-9.13-11-16.6-25.53-19.1-47.53Z"/><path class="cls-3" d="M213.6,49.64a95.7,95.7,0,0,1,95.68,95.68c0,52.92-33.2,134.08-95.68,134.08s-95.68-81.16-95.68-134.08A95.57,95.57,0,0,1,213.6,49.64Z"/><path class="cls-4" d="M178.74,403.3h0a170.91,170.91,0,0,1-83.85-40.05h0c15.77-31.76,41.51-61.85,83-78.46-1.24,27.61,72.44,27.61,71.19,0,38.61,15.36,63.72,42.76,79.7,72.23a172.45,172.45,0,0,1-81.15,44.41h0"/><path class="cls-3" d="M304.3,168.15c-10.17,0-19.51,8.3-21,18.26-1.45,10.17,5.6,18.48,15.77,18.48,10,0,19.31-8.31,20.76-18.48,1.45-10-5.4-18.26-15.57-18.26Z"/><path class="cls-3" d="M122.9,168.15c10,0,19.31,8.3,20.76,18.26,1.45,10.17-5.4,18.48-15.57,18.48s-19.51-8.31-21-18.48c-1.45-10,5.6-18.26,15.77-18.26Z"/><path class="cls-4" d="M213.6,43.21c54.8,0,99.21,42.75,99.21,95.68,0,17-3.53,37.15-10.79,56.45-30.93-71.61-98.17,0-142.79-60-13.29,30.92-20.55,35.28-39.85,41.92-3.32-13.49-5.19-26.56-5.19-38.39,0-52.93,44.62-95.68,99.41-95.68Z"/><path class="cls-4" d="M243.91,176.87a7.78,7.78,0,1,1,0,15.56,7.78,7.78,0,0,1,0-15.56Z"/><path class="cls-4" d="M183.09,176.87a7.78,7.78,0,1,1-7.68,7.88,7.71,7.71,0,0,1,7.68-7.88Z"/><path class="cls-5" d="M213.6,201.57c8.1,0,14.74,11.62,14.74,20.75s-6.23,8.51-14.32,8.51-15.36.62-15.36-8.51,6.64-20.75,14.94-20.75Z"/><path class="cls-4" d="M298.08,150.3s31.34,47.53-5.61,89.87l-.21-82.4Z"/><path class="cls-4" d="M128.92,150.3s-31.34,47.53,5.82,89.87l.2-82.4Z"/><path class="cls-4" d="M206.13,244.74H194.3c0-6.65,5.19-10.8,11.83-12.46Z"/><path class="cls-4" d="M221.08,244.74H232.7c0-6.65-5.19-10.8-11.62-12.46Z"/><path class="cls-6" d="M175,312.6l31.13,14.74a10.38,10.38,0,0,1,7.27-2.91,10.51,10.51,0,0,1,7.47,2.91l30.92-14.74c1.87-.83,3.74,1.66,3.74,3.74v38.19c0,2.07-1.87,4.56-3.74,3.73l-30.92-14.73a10.51,10.51,0,0,1-7.47,2.9,10.37,10.37,0,0,1-7.27-2.9L175,358.26c-1.66.83-3.53-1.66-3.53-3.73V316.34c0-2.08,1.87-4.57,3.53-3.74Z"/><path class="cls-7" d="M232.28,321.94l19.51-9.34c1.87-.83,3.74,1.66,3.74,3.74v28.85Z"/><path class="cls-6" d="M308.66,89.28c21,2.28,34.45,8.1,36.11,17,3.74,19.51-51.88,46.91-124.53,60.81-72.43,14.12-134.28,9.55-138-10.17-1.87-8.92,8.5-19.3,27.18-29.26-2.9-50.23,32-96.72,82.82-106.47h0c50.64-9.76,100.45,20.34,116.43,68.07Z"/></g></g></svg>