<svg xmlns="http://www.w3.org/2000/svg" viewBox="0 0 439.66 439.66"><defs><style>.cls-1{fill:#bcbec0;}.cls-2{fill:#010101;}.cls-2,.cls-3,.cls-4,.cls-5,.cls-6,.cls-7,.cls-8{fill-rule:evenodd;}.cls-3{fill:#fdcba7;}.cls-4{fill:#fabb8e;}.cls-5{fill:#67c5b2;}.cls-6{fill:#57bda9;}.cls-7{fill:#fff;}.cls-8{fill:#f38365;}</style></defs><g id="Layer_2" data-name="Layer 2"><g id="new"><circle class="cls-1" cx="219.83" cy="219.83" r="219.83"/><path class="cls-2" d="M249.51,72.06S313,39.05,313,130.38c0,64.13-16.81,134.28,13.49,146.73,39.44,16,1.66,56,35.08,65.17-45,24.49-40.06-39.43-67-33.83C237.89,320.28,243.7,226.26,265.7,152c9.55-32.58-1.45-64.34-16.19-79.9Z"/><path class="cls-3" d="M292.06,169.19a21.74,21.74,0,0,0-21,18.26c-1.46,10.17,5.6,18.27,15.77,18.27,10,0,19.3-8.1,20.75-18.27s-5.39-18.26-15.56-18.26Z"/><path class="cls-3" d="M110.66,169.19c10,0,19.3,8.09,20.76,18.26s-5.4,18.27-15.57,18.27a21.75,21.75,0,0,1-21-18.27c-1.46-10.17,5.6-18.26,15.77-18.26Z"/><path class="cls-4" d="M265.28,368a255.37,255.37,0,0,0,36.33-11.42c-15.16-18.05-37.57-33.83-53.34-52.92-9.14-11-16.61-25.53-19.1-47.74H187.25l-17,17Z"/><path class="cls-3" d="M201.36,50.68A95.7,95.7,0,0,1,297,146.36c0,52.92-33.21,134.07-95.68,134.07s-95.68-81.15-95.68-134.07a95.57,95.57,0,0,1,95.68-95.68Z"/><path class="cls-5" d="M254.91,311.57c-9.34-8.93-98-8.93-107.31,0L98.83,353.08c1.25,1.24,2.49,2.28,3.74,3.73a257.52,257.52,0,0,0,64.75,16.4v1.87s-4.15,1.49,68.91,1.49h0c22.41-2.7,43.79-11.46,63.3-19.14a43.66,43.66,0,0,1,4.36-4.35Z"/><path class="cls-6" d="M254.91,311.57c-4.57-4.36-28.64-6.65-52.72-6.65L265.28,368a261.51,261.51,0,0,0,34.25-10.59,43.66,43.66,0,0,1,4.36-4.35Z"/><path class="cls-2" d="M201.36,44.24c-42.13,0-78,25.12-92.57,60.82-11.62,28.43-6,51.47,1.46,91.52,2.9,16.4-2.08,27.61-8.31,36.53-8.71,12.25-19.51,23.25-17.22,35.49,1.66,8.51,9.75,21.59,29.88,19.72-34.24-46.7,41.51-51.89,46.7-86.55,10.59-68.9,52.51-93.81,99.63-85.92.2,40.26,15.35,55.83,34.45,62.47a153.14,153.14,0,0,0,5.19-38.4c0-52.92-44.42-95.68-99.21-95.68Z"/><path class="cls-2" d="M289.57,168.15s-31.34,47.53,5.6,89.87l.21-82.4Z"/><path class="cls-7" d="M201.57,317.79a8.86,8.86,0,0,1,8.92,8.93,8.93,8.93,0,0,1-17.85,0,8.87,8.87,0,0,1,8.93-8.93Z"/><path class="cls-7" d="M201.57,352.45a8.93,8.93,0,1,1-8.93,8.93,8.86,8.86,0,0,1,8.93-8.93Z"/><path class="cls-8" d="M201.36,229.17c10.38,0,14.94-9.34.21-9.34-15.15,0-10.8,8.92-1.25,9.34Z"/><path class="cls-2" d="M231.66,177.9a7.79,7.79,0,1,1,0,15.57,7.79,7.79,0,0,1,0-15.57Z"/><path class="cls-2" d="M170.85,177.9a7.79,7.79,0,1,1-7.68,7.89,7.71,7.71,0,0,1,7.68-7.89Z"/></g></g></svg>