<svg xmlns="http://www.w3.org/2000/svg" viewBox="0 0 439.66 439.66"><defs><style>.cls-1{fill:#bcbec0;}.cls-2{fill:#fdcba7;}.cls-2,.cls-3,.cls-4,.cls-5,.cls-6,.cls-7,.cls-8{fill-rule:evenodd;}.cls-3{fill:#fabb8e;}.cls-4{fill:#9f248c;}.cls-5{fill:#8c267c;}.cls-6{fill:#010101;}.cls-7{fill:#f38365;}.cls-8{fill:#ffcb05;}</style></defs><g id="Layer_2" data-name="Layer 2"><g id="new"><circle class="cls-1" cx="219.83" cy="219.83" r="219.83"/><path class="cls-2" d="M199.7,270.06c-2.7,22-10,36.73-19.1,47.73-21,25.32-53.75,45-65.58,71.61H296.83a102.35,102.35,0,0,0,39-7.89c-14.11-22.62-42.55-41.09-61.44-63.72-9.13-11-16.6-25.73-19.09-47.73Z"/><path class="cls-3" d="M196.38,287.08h0L298.7,389.19a100.83,100.83,0,0,0,37.15-7.68c-14.11-22.62-42.55-41.09-61.44-63.72-9.13-11-16.6-25.73-19.09-47.73H213.4Z"/><path class="cls-2" d="M227.51,64.58a95.76,95.76,0,0,1,95.68,95.89c0,52.72-33.21,133.87-95.68,133.87s-95.68-81.15-95.68-133.87a95.75,95.75,0,0,1,95.68-95.89Z"/><path class="cls-4" d="M103.81,389.4c14.94-35.7,41.93-71.19,88-89.46-.62,13.7,23,62.48,35.7,62.48s36.11-48.78,35.49-62.48c40.89,16.19,66.62,45.87,82.4,77.21a104.06,104.06,0,0,1-48.57,12.25Z"/><path class="cls-5" d="M248.68,339.38c8.09-14.74,14.74-32.17,14.32-39.44,40.89,16.19,66.62,45.87,82.4,77.21a102.09,102.09,0,0,1-46.7,12Z"/><path class="cls-2" d="M318.21,183.3a21.75,21.75,0,0,0-21,18.27c-1.46,10,5.6,18.26,15.77,18.26,10,0,19.51-8.3,20.75-18.26,1.46-10.17-5.39-18.27-15.56-18.27Z"/><path class="cls-2" d="M136.81,183.3c10,0,19.51,8.1,21,18.27,1.46,10-5.6,18.26-15.77,18.26s-19.51-8.3-21-18.26c-1.46-10.17,5.6-18.27,15.77-18.27Z"/><path class="cls-6" d="M257.81,192a7.78,7.78,0,1,1-7.68,7.68,7.85,7.85,0,0,1,7.68-7.68Z"/><path class="cls-6" d="M197,192a7.78,7.78,0,0,1,0,15.56A7.78,7.78,0,0,1,197,192Z"/><path class="cls-6" d="M183.92,263.83s4.16,23.66,29.06,28.85c6.85,18.47,22.21,18.47,29.06,0,24.9-5.19,28.85-28.85,28.85-28.85-21.59,28.23-65.17,28.23-87,0Z"/><path class="cls-7" d="M227.51,203.64c8.09,0,14.74,24.7,14.74,33.62,0,9.14-6.23,8.72-14.33,8.72s-15.15.42-15.15-8.72c0-8.92,6.44-33.62,14.74-33.62Z"/><path class="cls-6" d="M227.51,96.34c-21,22.62-61.85-4.57-70.77,24.07,0,0,11.41,58.74-21.59,71.19h0l-1.87.63a161.35,161.35,0,0,1-5-38.4c0-52.72,44.42-95.68,99.21-95.68s99.21,43,99.21,95.68a152,152,0,0,1-5.19,38.4l-1.66-.63h0c-33-12.45-21.79-71.19-21.79-71.19-8.72-28.64-49.61-1.45-70.57-24.07Z"/><path class="cls-6" d="M235.81,8.75c-32.17,24.91-67.24,87.59-34,106.48,15.78,8.92,32.38,4.77,45.46-2.29,14.52-7.68,30.92-6.64,30.92-6.64S237.47,49.64,235.81,8.75Z"/><path class="cls-6" d="M141.79,179.36s16.81,23.87,10.79,42.13c0,0-17.43-9.75-17.43-10.79s-1.87-18.47-1.87-18.47Z"/><path class="cls-6" d="M313,179.36s-16.6,23.87-10.59,42.13c0,0,17.44-9.75,17.44-10.79s1.66-18.47,1.66-18.47Z"/><polygon class="cls-8" points="222.53 376.32 219.83 389.4 233.11 389.4 232.91 379.02 222.53 376.32"/><path class="cls-8" d="M213,366.15c-1,2.08,11.62,20.55,13.49,20.55.83,0,18.27-21,14.53-21.59-6.85-.83-26.15-2.28-28,1Z"/><path class="cls-6" d="M193.06,106.3s-22.63-23-13.08-64.55c0,0,13.08,35.49,36.94,33.63,0,0-5,34-23.86,30.92Z"/></g></g></svg>