<svg xmlns="http://www.w3.org/2000/svg" viewBox="0 0 439.66 439.66"><defs><style>.cls-1{fill:#bcbec0;}.cls-2{fill:#fdcba7;}.cls-2,.cls-3,.cls-4,.cls-5,.cls-6{fill-rule:evenodd;}.cls-3{fill:#fabb8e;}.cls-4{fill:#010101;}.cls-5{fill:#d9392d;}.cls-6{fill:#f38365;}</style></defs><g id="Layer_2" data-name="Layer 2"><g id="new"><ellipse class="cls-1" cx="219.83" cy="219.83" rx="220.93" ry="217.89" transform="translate(-91.06 219.83) rotate(-45)"/><path class="cls-2" d="M290.81,199.17A18.51,18.51,0,0,0,273,214.71a13.24,13.24,0,0,0,13.42,15.54c8.48,0,16.42-7.07,17.66-15.54,1.23-8.65-4.59-15.54-13.24-15.54Z"/><path class="cls-2" d="M136.5,199.17c8.47,0,16.59,6.89,17.65,15.54,1.24,8.47-4.59,15.54-13.24,15.54s-16.6-7.07-17.83-15.54c-1.24-8.65,4.76-15.54,13.42-15.54Z"/><path class="cls-2" d="M190,273c-2.29,18.72-8.47,31.25-16.24,40.61-12.71,15.19-30.55,28.25-43.43,42.55a101.6,101.6,0,0,0,58.08,18.19H309.34c-10.24-22.43-38-39.38-55.79-60.74-7.77-9.36-14.12-21.89-16.24-40.61Z"/><path class="cls-2" d="M213.65,98.18A81.56,81.56,0,0,1,295,179.75c0,44.85-28.25,113.88-81.39,113.88s-81.39-69-81.39-113.88a81.45,81.45,0,0,1,81.39-81.57Z"/><path class="cls-3" d="M188.4,282.86c-.35,1.59-.88,3-1.23,4.59L274,374.32h35.31c-10.24-22.43-38-39.38-55.79-60.74-7.77-9.36-14.12-21.89-16.24-40.61h-39.2Z"/><path class="cls-2" d="M295,176.22v3.53c0,44.85-28.25,113.88-81.39,113.88a59.57,59.57,0,0,1-26.48-6.18l-1.77-1.76Z"/><path class="cls-4" d="M213.65,92.71c-46.61,0-84.57,36.55-84.57,81.39,0,14.66,3.18,31.78,9.18,48.2.35-31.6,37.08-84.22,85.81-78,6,59.86,52.61,68,69.56,62.5A129.27,129.27,0,0,0,298,174.1c0-44.84-37.78-81.39-84.39-81.39Z"/><path class="cls-4" d="M208.53,211s-3-54,41.67-59.85c-56.68-59-132.24,23.3-41.67,59.85Z"/><path class="cls-4" d="M288.69,194.76s-26.66,40.61,4.76,76.45l.18-70.1Z"/><path class="cls-4" d="M138.61,194.76s26.66,40.61-4.76,76.45l-.36-70.1Z"/><path class="cls-4" d="M213.65,35A47.59,47.59,0,1,1,166,82.65,47.7,47.7,0,0,1,213.65,35Z"/><path class="cls-5" d="M162.27,325.59c9.36,41.66,93.22,41.66,102.58,0L286.22,345a156.14,156.14,0,0,0-2.3,29.31H188.4A103.28,103.28,0,0,1,143,363.72,145.55,145.55,0,0,0,141.09,345Z"/><path class="cls-4" d="M181.34,302.11V374A99.12,99.12,0,0,1,127.49,354c12.18-13.06,29.49-23.83,53.85-51.9Zm64.62,0-.18,72.21h67.45c-12-27.37-32.49-32-67.27-72.21Z"/><path class="cls-4" d="M239.43,206.59a6.57,6.57,0,0,1,5.92,9.64,6.76,6.76,0,0,1-2.82,2.81,6.6,6.6,0,1,1-3.1-12.45Z"/><path class="cls-4" d="M187.7,206.59a6.56,6.56,0,0,1,5.91,9.64A6.68,6.68,0,0,1,190.8,219a6.6,6.6,0,1,1-3.1-12.45Z"/><path class="cls-6" d="M213.65,250c8.83,0,12.71-7.94.18-7.94-12.89,0-9.18,7.59-1.06,7.94Z"/></g></g></svg>