<svg xmlns="http://www.w3.org/2000/svg" viewBox="0 0 439.66 439.66"><defs><style>.cls-1{fill:#bcbec0;}.cls-2{fill:#010101;}.cls-2,.cls-3,.cls-4,.cls-5,.cls-6,.cls-7{fill-rule:evenodd;}.cls-3{fill:#fdcba7;}.cls-4{fill:#fabb8e;}.cls-5{fill:#e4aacd;}.cls-6{fill:#df9ac4;}.cls-7{fill:#f38365;}</style></defs><g id="Layer_2" data-name="Layer 2"><g id="new"><circle class="cls-1" cx="219.83" cy="219.83" r="219.83"/><path class="cls-2" d="M212.58,32.85h0c55.62,0,101.28,45.46,101.28,101.29V353.67a.51.51,0,0,1-.21.41,173.18,173.18,0,0,1-66.22,28.21.48.48,0,0,0-.4.48L152.89,341.1c0,.27,86.06-35.88,85.78-35.88C201.46,305,178,405.07,177.4,367.86c0-.23,32.22-20.05,32-20.09-24.05-4.78-78.12,20.06-97.68,6.31a.49.49,0,0,1-.22-.41V134.14C111.5,78.31,157,32.85,212.58,32.85Z"/><path class="cls-3" d="M305,159.85c-10,0-19.51,8.3-21,18.47-1.45,10,5.6,18.26,15.77,18.26s19.51-8.3,21-18.26c1.45-10.17-5.61-18.47-15.78-18.47Z"/><path class="cls-3" d="M123.64,159.85c10.17,0,19.51,8.3,21,18.47,1.45,10-5.61,18.26-15.78,18.26-10,0-19.5-8.3-21-18.26-1.45-10.17,5.61-18.47,15.78-18.47Z"/><path class="cls-3" d="M186.52,246.81c-2.49,22-10,36.74-19.09,47.74-18.06,21.79-45.25,39.64-59.78,61.22a175.77,175.77,0,0,0,72.23,32.38c27.81-30.17,3.24-1.19,37.69-2.59l31.22,2.59A175.67,175.67,0,0,0,321,355.77c-14.52-21.58-41.51-39.43-59.77-61.22-9.13-11-16.6-25.74-19.09-47.74Z"/><path class="cls-3" d="M214.33,41.34A95.7,95.7,0,0,1,310,137c0,52.92-33.2,134.07-95.68,134.07S118.65,189.94,118.65,137a95.71,95.71,0,0,1,95.68-95.68Z"/><path class="cls-4" d="M293.11,373.05a179.21,179.21,0,0,0,27.53-17,.5.5,0,0,0,.11-.68c-14.59-21.41-41.36-39.17-59.51-60.83-9.07-10.93-16.5-25.54-19-47.3a.5.5,0,0,0-.49-.44H200.43a.45.45,0,0,0-.35.15l-16.53,16.52a.5.5,0,0,0,0,.7L292.53,373A.51.51,0,0,0,293.11,373.05Z"/><path class="cls-3" d="M310,137h0c0,52.92-33.2,134.07-95.68,134.07a71.4,71.4,0,0,1-30.49-7,.5.5,0,0,1-.14-.8Z"/><path class="cls-2" d="M214.33,34.9c-42.13,0-78,25.32-92.56,60.82-26.17,64.9.85,193,63,234.67a.49.49,0,0,0,.72-.61c-56-133.69,17.63-234.45,88-223.13a.52.52,0,0,1,.43.49c.51,39.38,15.15,54.94,34.13,61.66a.5.5,0,0,0,.65-.36,160.53,160.53,0,0,0,4.85-37.86c0-52.71-44.41-95.68-99.21-95.68Z"/><path class="cls-2" d="M302.17,159.4c-3.39,5.57-28.12,49.14,5.31,88.27a.5.5,0,0,0,.88-.32l.2-80.69a.51.51,0,0,0-.1-.3l-5.48-7A.5.5,0,0,0,302.17,159.4Z"/><path class="cls-5" d="M154.15,308.66c11,49,109.58,49,120.58,0l24.91,22.83a202.29,202.29,0,0,0-2.49,39.43,167.85,167.85,0,0,1-48.36,17.23l-34.35,2.17c-37-1.36-34.56-2.17-34.56-2.17h0a170,170,0,0,1-48.36-17.23A174.68,174.68,0,0,0,129,331.49h0Z"/><path class="cls-6" d="M255.13,334.7c9.46-5.87,16.6-14.41,19.4-25.24a.5.5,0,0,1,.81-.25l24.1,22.1a.47.47,0,0,1,.15.44,202.65,202.65,0,0,0-2.45,38.88.5.5,0,0,1-.25.44c-1.26.72-2.53,1.43-3.79,2a.49.49,0,0,1-.56-.11L255,335.46A.48.48,0,0,1,255.13,334.7Z"/><path class="cls-7" d="M214.33,219.83c10.59,0,14.95-9.34.42-9.34-15.15,0-11,8.92-1.25,9.34Z"/><path class="cls-2" d="M250.45,168.77a7.52,7.52,0,0,1,7.66,7.17,7.76,7.76,0,0,1-8.18,8.18,7.68,7.68,0,0,1,.52-15.35Z"/></g></g></svg>