<svg xmlns="http://www.w3.org/2000/svg" viewBox="0 0 439.66 439.66"><defs><style>.cls-1{fill:#bcbec0;}.cls-2{fill:#fdcba7;}.cls-2,.cls-3,.cls-4,.cls-5,.cls-6,.cls-7{fill-rule:evenodd;}.cls-3{fill:#fabb8e;}.cls-4{fill:#f38365;}.cls-5{fill:#010101;}.cls-6{fill:#21b6ea;}.cls-7{fill:#fff;}</style></defs><g id="Layer_2" data-name="Layer 2"><g id="new"><circle class="cls-1" cx="219.83" cy="219.83" r="219.83"/><path class="cls-2" d="M187.54,246.39c-2.69,22-10.17,36.74-19.3,47.74-9.13,11.21-20.75,21.17-31.75,31.34A144.5,144.5,0,0,0,254.58,386.9h78v3.32a70,70,0,0,0-1-12.86c-6-32.59-45.45-54.38-69.32-83.23-9.13-11-16.6-25.74-19.09-47.74Z"/><path class="cls-3" d="M307.92,386.9h24.7v3.32a70,70,0,0,0-1-12.86c-6-32.59-45.45-54.38-69.32-83.23-9.13-11-16.6-25.74-19.09-47.74H201.24l-17,17Z"/><path class="cls-2" d="M215.36,40.92A95.84,95.84,0,0,1,311,136.6c0,52.92-33.42,134.08-95.68,134.08-62.48,0-95.89-81.16-95.89-134.08,0-52.72,43-95.68,95.89-95.68Z"/><path class="cls-4" d="M215.36,207.37c16.81,0,23.86,14.95.41,14.95-24.28,0-17.43-14.32-1.87-14.95Z"/><path class="cls-2" d="M306.06,159.43c-10.18,0-19.51,8.3-21,18.47-1.45,10,5.61,18.27,15.57,18.27,10.17,0,19.51-8.31,21-18.27,1.45-10.17-5.6-18.47-15.56-18.47Z"/><path class="cls-5" d="M215.36,34.49c54.79,0,99.2,43,99.2,95.68,0,17.22-3.73,37.35-10.79,56.66-88.21,7.26-123.7-61.23-123.7-61.23-17.43,23.87-39.85,36.32-58.94,43a162,162,0,0,1-5.19-38.39c0-52.72,44.42-95.68,99.42-95.68Z"/><path class="cls-2" d="M124.45,159.43c10.17,0,19.51,8.3,21,18.47,1.46,10-5.6,18.27-15.56,18.27-10.17,0-19.51-8.31-21-18.27-1.45-10.17,5.61-18.47,15.57-18.47Z"/><path class="cls-6" d="M171.77,286.86s-19.09,16.61-38.4,34.25A144.72,144.72,0,0,0,254.58,386.9H343c-2.7-12.86-5.4-22.62-7.06-25.94-6.85-13.28-77.21-74.1-77.21-74.1-19.71,27.4-67,27.4-87,0Z"/><path class="cls-7" d="M180.9,335l34.46-27.61-42.14-23.24s-17.64,7.26,7.68,50.85Z"/><path class="cls-7" d="M249.6,335l-34.24-27.61,42.13-23.24s17.43,7.26-7.89,50.85Z"/><path class="cls-5" d="M180.49,168.35a7.68,7.68,0,1,1-7.68,7.68,7.54,7.54,0,0,1,7.68-7.68Z"/></g></g></svg>