<svg xmlns="http://www.w3.org/2000/svg" viewBox="0 0 439.66 439.66"><defs><style>.cls-1{fill:#bcbec0;}.cls-2{fill:#c47e30;}.cls-2,.cls-3,.cls-4,.cls-5,.cls-6,.cls-7{fill-rule:evenodd;}.cls-3{fill:#bd7029;}.cls-4{fill:#fdcba7;}.cls-5{fill:#f38365;}.cls-6,.cls-8{fill:#010101;}.cls-7{fill:#fff;}</style></defs><g id="Layer_2" data-name="Layer 2"><g id="new"><circle class="cls-1" cx="219.83" cy="219.83" r="219.83"/><path class="cls-2" d="M105.37,359.09c24.28-24.69,59.56-60.18,63.09-61,1-.21,101.7-.21,102.53,0,3.74.83,39,36.32,63.3,61Z"/><path class="cls-3" d="M170.33,298.08c13.28-.21,99.83-.21,100.66,0,3.74.83,39,36.32,63.3,61H197.52l-44.21-44.2Z"/><path class="cls-2" d="M153.31,249.09H286.14c4.15,0,7.47,2.49,7.47,5.61v54.58c0,3.12-3.32,5.61-7.47,5.61H153.31c-3.94,0-7.47-2.49-7.47-5.61V254.7c0-3.12,3.53-5.61,7.47-5.61Z"/><path class="cls-3" d="M185.07,249.09H286.14c4.15,0,7.47,2.49,7.47,5.61v54.58c0,3.12-3.32,5.61-7.47,5.61H224.91L172,262Z"/><path class="cls-4" d="M219.73,50.89a95.71,95.71,0,0,1,95.68,95.68c0,52.92-33.21,134.07-95.68,134.07s-95.68-81.15-95.68-134.07a95.7,95.7,0,0,1,95.68-95.68Z"/><path class="cls-5" d="M219.73,189.94c8.3,0,14.73,24.49,14.73,33.63s-6,8.71-14.32,8.71c-8.09,0-15.15.42-15.15-8.71s6.64-33.63,14.74-33.63Z"/><path class="cls-4" d="M310.42,169.4c-10,0-19.5,8.3-21,18.47-1.45,10,5.61,18.26,15.78,18.26s19.51-8.3,21-18.26c1.45-10.17-5.61-18.47-15.78-18.47Z"/><path class="cls-4" d="M129,169.4c10.17,0,19.51,8.3,21,18.47,1.45,10-5.6,18.26-15.77,18.26-10,0-19.51-8.3-20.76-18.26C112,177.7,118.86,169.4,129,169.4Z"/><path class="cls-6" d="M219.73,44.45c-54.8,0-99.21,43-99.21,95.68,0,17.23,3.53,37.36,10.79,56.66.42-37.15,22-101.7,148.19-80.53.21,40.06,15.15,55.63,34.45,62.27a161.35,161.35,0,0,0,5-38.4c0-52.72-44.41-95.68-99.2-95.68Z"/><path class="cls-7" d="M181.12,205.09a25.63,25.63,0,1,0-25.53-25.52,25.68,25.68,0,0,0,25.53,25.52Z"/><path class="cls-6" d="M181.12,149.06a30.41,30.41,0,1,1-30.3,30.51,30.42,30.42,0,0,1,30.3-30.51Zm0,6a24.39,24.39,0,1,1,0,48.78,24.39,24.39,0,0,1,0-48.78Z"/><path class="cls-7" d="M258.33,205.09a25.63,25.63,0,0,0,0-51.26,25.63,25.63,0,1,0,0,51.26Z"/><path class="cls-6" d="M258.33,149.06a30.41,30.41,0,1,1-30.51,30.51,30.56,30.56,0,0,1,30.51-30.51Zm0,6a24.39,24.39,0,1,1-24.49,24.5,24.54,24.54,0,0,1,24.49-24.5Z"/><rect class="cls-8" x="207.69" y="176.24" width="24.28" height="6.43"/><path class="cls-6" d="M285.93,176.24H307.1a3.25,3.25,0,0,1,3.12,3.33h0a3.2,3.2,0,0,1-3.12,3.11H285.93Z"/><path class="cls-6" d="M153.52,176.24h-21a3.25,3.25,0,0,0-3.12,3.33h0a3.2,3.2,0,0,0,3.12,3.11h21Z"/></g></g></svg>